<?xml version="1.0" encoding="UTF-8"?>
<svg xmlns="http://www.w3.org/2000/svg" width="48" height="48" viewBox="0 0 48 48">
  
  <defs>
    <!-- 纸张纹理 -->
    <filter id="paper" x="0" y="0" width="100%" height="100%">
      <feTurbulence type="fractalNoise" baseFrequency="0.04" numOctaves="5" seed="2" result="noise"/>
      <feColorMatrix in="noise" type="matrix" values="0 0 0 0 0.93  0 0 0 0 0.91  0 0 0 0 0.85  0 0 0 0.08 0"/>
      <feComposite in2="SourceGraphic" operator="in"/>
    </filter>
    <!-- 水彩晕染 -->
    <filter id="watercolor" x="-20%" y="-20%" width="140%" height="140%">
      <feTurbulence type="fractalNoise" baseFrequency="0.015" numOctaves="3" seed="5" result="turb"/>
      <feDisplacementMap in="SourceGraphic" in2="turb" scale="2" xChannelSelector="R" yChannelSelector="G"/>
    </filter>
    <!-- 柔和投影 -->
    <filter id="dropShadow" x="-30%" y="-30%" width="160%" height="160%">
      <feGaussianBlur in="SourceAlpha" stdDeviation="1.5"/>
      <feOffset dx="0.5" dy="1.5" result="shadow"/>
      <feComponentTransfer><feFuncA type="linear" slope="0.25"/></feComponentTransfer>
      <feMerge><feMergeNode/><feMergeNode in="SourceGraphic"/></feMerge>
    </filter>
    <!-- 内高光 -->
    <filter id="innerGlow" x="-10%" y="-10%" width="120%" height="120%">
      <feGaussianBlur in="SourceAlpha" stdDeviation="0.5"/>
      <feOffset dx="0" dy="-0.5" result="glow"/>
      <feComponentTransfer><feFuncA type="linear" slope="0.4"/></feComponentTransfer>
      <feMerge><feMergeNode/><feMergeNode in="SourceGraphic"/></feMerge>
    </filter>
    <!-- 水彩边缘不规则 -->
    <filter id="handDrawn" x="-5%" y="-5%" width="110%" height="110%">
      <feTurbulence type="fractalNoise" baseFrequency="0.1" numOctaves="2" seed="3" result="t"/>
      <feDisplacementMap in="SourceGraphic" in2="t" scale="0.8"/>
    </filter>
  </defs>
  
    <!-- 容器底色 -->
    <rect x="2" y="2" width="44" height="44" rx="10" ry="10" fill="#F4EFE3" stroke="#E8DFC9" stroke-width="1"/>
    <!-- 纸张纹理叠加 -->
    <rect x="2" y="2" width="44" height="44" rx="10" ry="10" fill="#E8DFC9" opacity="0.15" filter="url(#paper)"/>
    <!-- 容器底部阴影 -->
    <ellipse cx="24" cy="44" rx="16" ry="1.5" fill="#000000" opacity="0.06"/>
  <g>
    <circle cx="38" cy="12" r="1" fill="#8FB5D1" opacity="0.6"/>
    <circle cx="10" cy="38" r="0.8" fill="#A8C97F" opacity="0.5"/>
    <g transform="translate(36,36) rotate(-10)"><path d="M0,0 Q2,-3 0,-6 Q-2,-3 0,0 Z" fill="#5CBF9E" opacity="0.5"/></g>
  </g>
  <g>
    
    <path d="M30,14 A10,10 0 1,0 34,30" fill="none" stroke="#5B8FB9" stroke-width="2.5" stroke-linecap="round" filter="url(#dropShadow)"/>
    <path d="M30,14 L34,11 L34,18 Z" fill="#5B8FB9" filter="url(#dropShadow)"/>
    <path d="M34,30 L30,33 L30,26 Z" fill="#5B8FB9" filter="url(#dropShadow)" opacity="0.7"/>
  </g>
</svg>